<?xml version="1.0" encoding="utf-8"?>
<!-- Generator: Adobe Illustrator 24.1.2, SVG Export Plug-In . SVG Version: 6.00 Build 0)  -->
<svg version="1.1" id="fcaf27ad-0cd1-4b30-b749-00e238214d87"
	 xmlns="http://www.w3.org/2000/svg" xmlns:xlink="http://www.w3.org/1999/xlink" x="0px" y="0px" viewBox="0 0 2601 1677.5"
	 style="enable-background:new 0 0 2601 1677.5;" xml:space="preserve">
<style type="text/css">
	.st0{opacity:0.61;}
	.st1{fill:#3F3D56;}
	.st2{fill:#DCCDB1;}
	.st3{fill:#E6E6E6;}
	.st4{fill:#FFFFFF;}
	.st5{fill:#2F2E41;}
	.st6{fill:#FFB9B9;}
	.st7{fill:#D0CDE1;}
	.st8{opacity:0.15;enable-background:new    ;}
	.st9{fill:#FF6584;}
	.st10{opacity:0.2;enable-background:new    ;}
	.st11{fill:none;}
	.st12{fill:#CCCCCC;}
	.st13{fill:#F2F2F2;}
</style>
<g class="st0">
	<ellipse transform="matrix(0.36 -0.9329 0.9329 0.36 -1195.9432 1566.7179)" class="st1" cx="544" cy="1655.1" rx="99" ry="48.5"/>
	<path class="st2" d="M481.5,1804.6c60.1-101.7,83.9-217,84.2-218.2l-3.8-0.8c-0.2,1.1-24,115.8-83.7,217L481.5,1804.6z"/>
	
		<rect x="524.7" y="1615" transform="matrix(0.7575 -0.6529 0.6529 0.7575 -942.9304 741.4991)" class="st2" width="3.8" height="49.7"/>
	
		<rect x="540.7" y="1665.6" transform="matrix(0.9924 -0.1229 0.1229 0.9924 -200.5917 82.1153)" class="st2" width="49.7" height="3.8"/>
	
		<ellipse transform="matrix(0.36 -0.9329 0.9329 0.36 -993.0887 1654.0898)" class="st3" cx="709.1" cy="1550.9" rx="193.6" ry="94.9"/>
	<path class="st2" d="M585.3,1842.4c117.4-198.7,164-423.9,164.4-426.1l-3.8-0.8c-0.5,2.2-47,226.8-164,424.9L585.3,1842.4z"/>
	
		<rect x="673.1" y="1472.6" transform="matrix(0.7575 -0.6529 0.6529 0.7575 -829.4641 809.6666)" class="st2" width="3.8" height="97.3"/>
	
		<rect x="702.6" y="1573.4" transform="matrix(0.9924 -0.1229 0.1229 0.9924 -187.8401 104.2256)" class="st2" width="97.3" height="3.8"/>
	<path class="st3" d="M389.4,1767.4l-470.8-181.7c-3.6-1.4-5.4-5.4-4-9.1l114.8-297.5c1.4-3.6,5.4-5.4,9.1-4l470.8,181.7
		c3.6,1.4,5.4,5.4,4,9.1l-114.8,297.5C397,1767,393,1768.8,389.4,1767.4z"/>
	<path class="st4" d="M67.8,1328c-1.5-0.6-3.3,0.2-3.9,1.7l-89.8,232.8c-0.6,1.5,0.2,3.3,1.7,3.9L360,1714.7
		c1.5,0.6,3.3-0.2,3.9-1.7l89.8-232.8c0.6-1.5-0.2-3.3-1.7-3.9L67.8,1328z"/>
	
		<rect x="229.5" y="1241.6" transform="matrix(0.36 -0.9329 0.9329 0.36 -1204.4644 1151.92)" class="st3" width="15.8" height="424.6"/>
	
		<rect x="201.6" y="1313.7" transform="matrix(0.36 -0.9329 0.9329 0.36 -1289.5746 1172.116)" class="st3" width="15.8" height="424.6"/>
	
		<rect x="160.5" y="1376.2" transform="matrix(0.36 -0.9329 0.9329 0.36 -1258.9111 1094.6825)" class="st3" width="15.8" height="177.5"/>
	
		<rect x="172.2" y="1390" transform="matrix(0.36 -0.9329 0.9329 0.36 -1379.5206 1193.4594)" class="st3" width="15.8" height="424.6"/>
	
		<rect x="-29.4" y="1440.5" transform="matrix(0.36 -0.9329 0.9329 0.36 -1300.3215 1001.3253)" class="st3" width="218.2" height="15.8"/>
	
		<rect x="302.2" y="1508.3" transform="matrix(0.36 -0.9329 0.9329 0.36 -1177.7534 1315.505)" class="st3" width="135.6" height="15.8"/>
	
		<rect x="107.7" y="1522.2" transform="matrix(0.36 -0.9329 0.9329 0.36 -1276.1152 1199.9052)" class="st3" width="257.6" height="15.8"/>
	
		<rect x="64.7" y="1550" transform="matrix(0.36 -0.9329 0.9329 0.36 -1370.985 1117.1901)" class="st3" width="128.2" height="15.8"/>
	<circle class="st2" cx="233.7" cy="1537.5" r="20.2"/>
	<polygon class="st1" points="684.5,1883.2 -165,1555.4 -164.2,1553.3 685.6,1881.3 	"/>
	<circle class="st2" cx="324" cy="1310" r="124.7"/>
	<polygon class="st2" points="252.2,1499.5 239.7,1422.6 227.2,1345.6 300.1,1373.3 373,1400.9 312.6,1450.2 	"/>
	<circle class="st4" cx="325.2" cy="1309.7" r="44.7"/>
	<path class="st5" d="M429.1,1029.6c0,0-22.2-16.6-42.7,14.5c-20.5,31.2-21.5,50.5-21.5,50.5l58.1,15
		C423,1109.6,462.5,1054.4,429.1,1029.6z"/>
	<path class="st6" d="M335.1,1162.5c0,0-37.9-10.5-37.1,6.8c0.8,17.2,0.3,18.5,0.3,18.5l10,69.6l14.6-6.8c0,0-1.8-30.1,1.3-38.3
		s-3.4-27.2-3.4-27.2l21.9,6.5L335.1,1162.5z"/>
	<path class="st6" d="M428.4,1218.6l1.9,31.1c0,0,5.6,12.6,1.5,52.9c-4.1,40.3-1.4,39.8-1.4,39.8l-16.3-2.8c0,0-1.7-46-6.1-51.2
		s-0.7-35.6-0.7-35.6L397,1220l11.3-11.1L428.4,1218.6z"/>
	<path class="st5" d="M425.3,1182.6l5.3,41.9c0,0-19.2-19.9-31.9,2.6l-14.9-24.7c0,0-33.2-1.8-49.6-12.2c0,0,11.6-14.5-4.2-29
		l44.1,11l1.8-9.8l7.7-7L425.3,1182.6z"/>
	<path class="st5" d="M313.9,1250.7c0,0-11-6.2-12,5.3l-2,23.1c0,0-16,18.2-2,18.1c14-0.1,33.2-26.5,33.2-26.5s13.9-20.5,8.7-22.5
		c-5.2-2-20.3-11.8-19.9-7.7C320.2,1244.6,313.9,1250.7,313.9,1250.7z"/>
	<path class="st5" d="M431.4,1335.9c0,0-13.7-9.8-19.5-5c-5.8,4.7-12.6,25-12.8,25.4s3.4,6.8,5.1,7.4s5,24.4,22.5,23.1
		C444.1,1385.6,431.4,1335.9,431.4,1335.9z"/>
	
		<ellipse transform="matrix(0.5048 -0.8632 0.8632 0.5048 -715.0147 881.548)" class="st6" cx="410.9" cy="1064" rx="18.1" ry="18.1"/>
	<path class="st6" d="M423.4,1072.8c0,0-3.6,19.5-1.5,23.3c2,3.8-25.5-2.4-25.5-2.4s8.8-11.1,6.5-19.4
		C400.6,1066,423.4,1072.8,423.4,1072.8z"/>
	<path class="st7" d="M429.1,1193.5c-3-1.1-10-5.3-17.8-10.1c-6.8-4.2-14.1-8.9-19.9-12.6c-6.2-4-10.6-6.9-10.6-6.9
		s-5.9,10.2-11,6.7c-4.4-3,0.6-59.3,2.1-74.8c0.2-2.3,2-4.2,4.3-4.6l24.6-4.5l4.4,3.9c0,0,11.2-3.3,16.3-1.5s14.2,3.8,14.2,3.8
		s9.6,4.7,8.5,12.8c-1.1,8-18,54.3-14.6,65.1C432.7,1181.5,437.3,1196.7,429.1,1193.5z"/>
	<path class="st6" d="M359,1194.4c0,0-6.5,16.9,5.7,18.7c12.3,1.7,7.9-17.9,7.9-17.9L359,1194.4z"/>
	<path class="st6" d="M389.6,1208.2c0,0-11.6,18.4-18.7,12.2c-7.1-6.2,8-20.8,8-20.8L389.6,1208.2z"/>
	<path class="st8" d="M426,1167.9c0,0-8.2,8.5-14.7,15.5c-6.8-4.2-14.1-8.9-19.9-12.6c0.9-1,2-1.9,3.2-2.6c4.4-2.3,3-3.8,3-3.8
		c-0.6-6.2,4.2-12.3,4.2-12.3c0.2-15.9,14.6-30.2,14.6-30.2L426,1167.9z"/>
	<path class="st7" d="M417.7,1122.4c0,0-14.5,14.3-14.6,30.2c0,0-4.8,6.1-4.2,12.3c0,0,1.4,1.5-3,3.8s-11.7,13.4-10.5,16.9
		c1.2,3.4-5.9,6.2-5.6,9.3c0.3,3.1-4.5,5.2-4.5,5.2s12,7.6,12.7,12.4c0,0,3.8-2,3.8-6s1.4-4.9,3.5-6.6c2.1-1.7,7.9-4.9,9.1-6.9
		c1.3-2,22.9-24.5,22.9-24.5l13.6-51L417.7,1122.4z"/>
	<path class="st7" d="M377.3,1092.9l-0.9-0.2c-2.5-0.5-5,0.9-5.9,3.3c-1.6,4.4-4.4,12.2-7.4,23.3c-5,18-8.9,46.4-8.6,49.5
		c0.3,5.4,0.9,10.8,1.8,16.1c1.4,8,3.1,6.2,1.1,8.9c-1.2,1.5-1.4,3.6-0.5,5.3c0,0,11.1-5.7,17.1,2.1c1-1,1.8-2.2,2.4-3.6
		c0.8-2.2,3-3.8,1.3-6s4-6.4,1.7-10.8c-2.3-4.4-2.9-4.1-1.3-7c1-2,1.5-4.2,1.5-6.4L377.3,1092.9z"/>
	<path class="st5" d="M425.6,1044.7c0,0-14.2,15.9-34.3,17l3.6-17.6L425.6,1044.7z"/>
	
		<ellipse transform="matrix(0.36 -0.9329 0.9329 0.36 -717.4188 1081.8595)" class="st6" cx="429.8" cy="1063.8" rx="4.9" ry="2.6"/>
</g>
<g class="st0">
	<circle class="st9" cx="1728.2" cy="1002.3" r="65.4"/>
	<path class="st1" d="M1933.1,1203.7h-320.6c-0.4,0-0.8,0-1.2-0.1l151.6-262.6c2.9-5.1,9.4-6.9,14.5-4c1.7,0.9,3.1,2.3,4,4
		l101.8,176.2l4.9,8.4L1933.1,1203.7z"/>
	<polygon class="st10" points="1933.1,1203.7 1823.6,1203.7 1877.4,1125.6 1881.2,1120 1883.2,1117.2 1888,1125.6 	"/>
	<path class="st1" d="M2111.6,1203.7h-277.3l53.7-78l3.9-5.6l70-101.7c4.6-6.7,15.6-7.1,21-1.3c0.4,0.4,0.7,0.8,1,1.3L2111.6,1203.7
		z"/>
	<circle class="st2" cx="2193" cy="1140.8" r="19.7"/>
	<polygon class="st1" points="2194.9,1200.1 2190.9,1200.1 2192.7,1137.8 	"/>
	<polygon class="st1" points="2193.1,1149.6 2197.4,1143.6 2193,1151.1 2192.5,1150.3 	"/>
	<polygon class="st1" points="2192.6,1155.7 2188.2,1149.7 2192.6,1157.1 2193.1,1156.3 	"/>
	<circle class="st2" cx="2373.6" cy="1140.8" r="19.7"/>
	<polygon class="st1" points="2375.5,1200.1 2371.5,1200.1 2373.3,1137.8 	"/>
	<polygon class="st1" points="2373.7,1149.6 2378,1143.6 2373.6,1151.1 2373.2,1150.3 	"/>
	<polygon class="st1" points="2373.2,1155.7 2368.9,1149.7 2373.3,1157.1 2373.8,1156.3 	"/>
	<circle class="st2" cx="2250" cy="1112.5" r="29.1"/>
	<polygon class="st1" points="2252.8,1200.1 2246.9,1200.1 2249.6,1108.1 	"/>
	<polygon class="st1" points="2250.1,1125.5 2256.5,1116.7 2250,1127.7 2249.3,1126.5 	"/>
	<polygon class="st1" points="2249.4,1134.5 2243,1125.6 2249.5,1136.7 2250.2,1135.4 	"/>
	<circle class="st2" cx="2321" cy="1112.5" r="29.1"/>
	<polygon class="st1" points="2323.8,1200.1 2317.8,1200.1 2320.5,1108.1 	"/>
	<polygon class="st1" points="2321.1,1125.5 2327.4,1116.7 2321,1127.7 2320.3,1126.5 	"/>
	<polygon class="st1" points="2320.4,1134.5 2314,1125.6 2320.4,1136.7 2321.1,1135.4 	"/>
	<circle class="st2" cx="2137" cy="1112.5" r="29.1"/>
	<polygon class="st1" points="2139.8,1200.1 2133.8,1200.1 2136.6,1108.1 	"/>
	<polygon class="st1" points="2137.1,1125.5 2143.5,1116.7 2137,1127.7 2136.3,1126.5 	"/>
	<polygon class="st1" points="2136.4,1134.5 2130,1125.6 2136.5,1136.7 2137.2,1135.4 	"/>
	<path class="st3" d="M2603.4,1502.3H1532c-50.3,0-91.1-40.8-91.1-91.1c0-50.3,40.8-91.1,91.1-91.1h947c19.3,0,35-15.7,35-35
		c0-19.3-15.7-35-35-35h-978.6v-56H2479c50.3,0,91.1,40.7,91.1,91s-40.7,91.1-91,91.1c0,0-0.1,0-0.1,0h-947c-19.3,0-35,15.7-35,35
		c0,19.3,15.7,35,35,35h1071.4V1502.3z"/>
	<rect x="1535.5" y="1220.7" class="st4" width="43.4" height="2.8"/>
	<rect x="1658.7" y="1220.7" class="st4" width="43.4" height="2.8"/>
	<rect x="1782" y="1220.7" class="st4" width="43.4" height="2.8"/>
	<rect x="1905.3" y="1220.7" class="st4" width="43.4" height="2.8"/>
	<rect x="2028.6" y="1220.7" class="st4" width="43.4" height="2.8"/>
	<rect x="2151.9" y="1220.7" class="st4" width="43.4" height="2.8"/>
	<rect x="2275.2" y="1220.7" class="st4" width="43.4" height="2.8"/>
	<rect x="2398.4" y="1220.7" class="st4" width="43.4" height="2.8"/>
	<rect x="1535.5" y="1346.8" class="st4" width="43.4" height="2.8"/>
	<rect x="1658.7" y="1346.8" class="st4" width="43.4" height="2.8"/>
	<rect x="1782" y="1346.8" class="st4" width="43.4" height="2.8"/>
	<rect x="1905.3" y="1346.8" class="st4" width="43.4" height="2.8"/>
	<rect x="2028.6" y="1346.8" class="st4" width="43.4" height="2.8"/>
	<rect x="2151.9" y="1346.8" class="st4" width="43.4" height="2.8"/>
	<rect x="2275.2" y="1346.8" class="st4" width="43.4" height="2.8"/>
	<rect x="2398.4" y="1346.8" class="st4" width="43.4" height="2.8"/>
	<rect x="1535.5" y="1472.9" class="st4" width="43.4" height="2.8"/>
	<rect x="1658.7" y="1472.9" class="st4" width="43.4" height="2.8"/>
	<rect x="1782" y="1472.9" class="st4" width="43.4" height="2.8"/>
	<rect x="1905.3" y="1472.9" class="st4" width="43.4" height="2.8"/>
	<rect x="2028.6" y="1472.9" class="st4" width="43.4" height="2.8"/>
	<rect x="2151.9" y="1472.9" class="st4" width="43.4" height="2.8"/>
	<rect x="2275.2" y="1472.9" class="st4" width="43.4" height="2.8"/>
	<rect x="2398.4" y="1472.9" class="st4" width="43.4" height="2.8"/>
	<path class="st11" d="M2169.5,991.3c-2.2-2.8-4.8-5.3-7.8-7.3h16.3C2174.6,985.8,2171.7,988.3,2169.5,991.3z"/>
	<path class="st11" d="M2116.3,983.9h2.8c-0.6,0.4-1.2,0.8-1.8,1.3C2117,984.8,2116.7,984.4,2116.3,983.9z"/>
	<path class="st3" d="M2190.9,980.6c4.6,0,9.1,1.2,13,3.4h-26C2181.9,981.7,2186.4,980.6,2190.9,980.6z"/>
	<path class="st3" d="M2140.4,977.2c7.6,0,15.1,2.3,21.3,6.7h-42.5C2125.4,979.5,2132.8,977.2,2140.4,977.2z"/>
	<path class="st3" d="M1854.1,934.5c2.2-38.1,34.8-67.2,72.9-65.1c29.5,1.7,54.8,22,62.7,50.5c0.8,0,1.7-0.1,2.5-0.1
		c30.7,0,57.6,20.2,66.3,49.6c20.3-8.9,44.1-3,57.9,14.4h-215.5c-25.8,0.1-46.8-20.8-46.9-46.6c0-0.6,0-1.2,0-1.8
		C1854.1,935.2,1854.1,934.9,1854.1,934.5z"/>
	<path class="st11" d="M2228.1,1041.7c2.2-2.8,4.8-5.3,7.8-7.3h-16.3C2223,1036.2,2225.9,1038.7,2228.1,1041.7z"/>
	<path class="st11" d="M2281.3,1034.4h-2.8c0.6,0.4,1.2,0.8,1.8,1.3C2280.6,1035.2,2280.9,1034.8,2281.3,1034.4z"/>
	<path class="st3" d="M2206.7,1031c-4.6,0-9.1,1.2-13,3.4h26C2215.7,1032.2,2211.2,1031,2206.7,1031z"/>
	<path class="st3" d="M2257.2,1027.6c-7.6,0-15.1,2.3-21.3,6.7h42.5C2272.2,1030,2264.8,1027.6,2257.2,1027.6z"/>
	<path class="st3" d="M2543.5,985c-2.2-38.1-34.8-67.2-72.9-65.1c-29.5,1.7-54.8,22-62.7,50.5c-0.8,0-1.7-0.1-2.5-0.1
		c-30.7,0-57.6,20.2-66.3,49.6c-20.3-8.9-44.1-3-57.9,14.4h215.5c25.8,0.1,46.8-20.8,46.9-46.6c0-0.6,0-1.2,0-1.8
		C2543.5,985.7,2543.5,985.3,2543.5,985z"/>
	<rect x="2399.9" y="1459.2" class="st1" width="25" height="4"/>
	<path class="st2" d="M2218.8,1460l5.2,1.2l196.4,0.1l1.8-4.1c3.1-7.1,4.1-14.8,3.1-22.5c-0.8-5.7-3-11.3-7.8-13.8l-8.7-58
		l-108.6-0.2l-42,33.9c0,0-19.8-0.4-30.6,13.1c-3.9,5-6.2,11-6.6,17.3l-0.4,7L2218.8,1460z"/>
	<circle class="st1" cx="2261.9" cy="1459.1" r="24.2"/>
	<circle class="st12" cx="2261.9" cy="1459.1" r="12.8"/>
	<circle class="st1" cx="2381.6" cy="1459.1" r="24.2"/>
	<circle class="st12" cx="2381.6" cy="1459.1" r="12.8"/>
	<polygon class="st4" points="2274.7,1392.7 2333.3,1392.7 2340.5,1392.7 2352.6,1392.7 2352.6,1391.8 2352.6,1381.2 2352.6,1369.3 
		2344.6,1369.3 2337.4,1369.3 2324.7,1369.3 2317.6,1369.3 2302.9,1369.3 	"/>
	<polygon class="st4" points="2362.1,1392.7 2393.1,1392.8 2393.1,1386.7 2393.1,1376 2393.2,1369.3 2388.6,1369.3 2381.5,1369.3 
		2362.1,1369.3 	"/>
	<rect x="2348.6" y="1410.2" class="st1" width="4" height="7.6"/>
	<rect x="2283" y="1399.5" class="st1" width="7.6" height="4"/>
	<path class="st1" d="M2287.8,1401.2l-0.4,0c-4.6,0-8.3-3.7-8.3-8.3l0,0c0-4.6,3.7-8.3,8.3-8.3l0.4,0l0,0L2287.8,1401.2
		L2287.8,1401.2z"/>
	<path class="st1" d="M2220.4,1434c7.1,0.8,13.4-4.3,14.2-11.4c0.6-5.4-2.3-10.6-7.1-12.9c-3.9,5-6.2,11-6.6,17.3L2220.4,1434z"/>
	<polygon class="st13" points="2337.4,1369.3 2352.6,1391.8 2352.6,1381.2 2344.6,1369.3 	"/>
	<polygon class="st13" points="2381.5,1369.3 2393.1,1386.7 2393.1,1376 2388.6,1369.3 	"/>
	<polygon class="st13" points="2317.6,1369.3 2333.3,1392.7 2340.5,1392.7 2324.7,1369.3 	"/>
	<circle class="st1" cx="1493.4" cy="1205.3" r="64.4"/>
	<path class="st2" d="M1493.7,1224.7l-32.2-32.2c-2.2-2.2-2.2-5.7,0-7.9c2.2-2.2,5.7-2.2,7.9,0l23.8,23.8l75.9-86.6
		c2-2.3,5.6-2.5,7.9-0.5c2.3,2,2.5,5.6,0.5,7.9L1493.7,1224.7z"/>
</g>
<g class="st0">
	<path class="st3" d="M1925.1,532.2c0,0,2.3-38.7,39.4-33.8"/>
	<path class="st3" d="M1923.1,663.5c0-0.4-3.9-40.8,14.1-62c6.7-7.8,15.5-12.1,26.3-12.8l0.1,1.5c-10.4,0.7-18.8,4.8-25.2,12.3
		c-17.6,20.6-13.8,60.4-13.7,60.8L1923.1,663.5z"/>
	
		<rect x="1838.5" y="576.7" transform="matrix(1.219336e-02 -0.9999 0.9999 1.219336e-02 1322.519 2493.6743)" class="st3" width="169.7" height="1.5"/>
	
		<ellipse transform="matrix(1.219336e-02 -0.9999 0.9999 1.219336e-02 1421.4033 2400.6199)" class="st2" cx="1925.7" cy="480.9" rx="12.6" ry="12.7"/>
	
		<ellipse transform="matrix(1.219336e-02 -0.9999 0.9999 1.219336e-02 1350.1417 2545.6516)" class="st3" cx="1963.5" cy="589.5" rx="12.5" ry="12.6"/>
	<path class="st2" d="M2357.6,259.8l0,0.8c0,2.1-0.1,4.2-0.3,6.2c-4.8,76.4-71.1,134.3-148.1,129.5
		c-70.8-4.4-126.9-60.8-130.6-131.1c-0.2-2.9-0.2-5.9-0.2-8.9c0.3-28.7,9.6-56.6,26.6-79.8c1.4-1.9,2.8-3.7,4.2-5.5
		c1-1.3,2.1-2.5,3.1-3.7c49.7-57,136.2-64.1,194.7-15.9c1.7,1.4,3.3,2.8,4.9,4.2c1.3,1.2,2.5,2.3,3.8,3.5
		c24.3,23.6,39,55.2,41.4,88.9C2357.5,252,2357.7,255.9,2357.6,259.8z"/>
	<path class="st1" d="M2109.4,171.2c0.1,0,0.1,0.1,0.2,0.1c0.7,0.6-0.2,1.8-0.1,2.8c0.1,1.2,1.8,1.5,3,1.7c1.3,0.1,2.8,1.2,2.2,2.3
		c-3.2,1-6.4-0.1-9.6-1.3c-17,23.2-26.3,51.1-26.6,79.8c0,3,0,5.9,0.2,8.9c0.3,0.2,0.6,0.4,0.9,0.5c0.9,0.4,2,0.3,2.9,0.8
		c0.7,0.4,1.1,1.1,1.8,1.5c2,1.1,4.7-0.9,6.6,0.4c0.5,0.4,0.9,0.9,1.3,1.4c1.7,1.5,4.5,0.5,6.5,1.7c1.3,0.7,1.9,2.1,2.6,3.4
		c1.7,3.2,4.4,6.4,8,6.7c1.1,0,2.3,0,3.4,0.2c1.1,0.3,2.2,1.3,2,2.4c-0.3,1.9,0.6,4.1,0.3,6c-0.5,3.5-5.6,5-6,8.5
		c0,0.8-0.1,1.6-0.2,2.3c-0.2,0.9-1,1.7-1.2,2.6c-0.5,1.7,0.7,3.5,2.1,4.7c1.4,1.2,3,2.2,3.8,3.9c0.8,1.8,0.4,3.8,0.6,5.7
		c0.5,4.1,4.1,7.3,7.8,9.3c1.2,0.5,2.2,1.3,3,2.3c0.9,1.4,0.8,3.2,1.1,4.8c0.7,4,4.1,7.3,4.1,11.4c0,2.9-1.6,5.5-2.6,8.2
		c-1,2.8-1.4,5.9-1,8.9c5.4,4.6,11.1,8.8,17.1,12.6c0.3-0.5,0.6-1,0.7-1.6c0.3-1.3-0.3-2.6-1.4-3.3c1-0.4,2-0.9,2.7-1.7
		c0.8-0.8,1-2,0.5-3c1.7,0.2,3.7,0.4,4.8-0.9c0.9-1,0.9-2.5,0.5-3.8c-0.3-1.3-0.9-2.6-0.9-3.9c3.9,0.2,7.8,0.2,11.6-0.2
		c-0.5-1.9-1.8-3.5-3.5-4.4c1.8-0.3,3.4-2.3,3.9-4c0.5-1.7,0.5-3.5,0.1-5.2c-0.1-0.4-0.1-0.9,0-1.4c0.3-0.6,0.8-1.1,1.4-1.3
		c2.9-1.6,5.8-3.2,8.7-4.8c0.5-0.3,1-0.6,1.4-1c0.9-1.1,0.8-2.6,0.4-4c-0.4-1.3-1.2-2.6-1.3-3.9c-0.5-4.1,4-7,5.5-10.9
		c0.5-1.5,0.8-3.2,0.9-4.8c0.1-1.8,0.2-3.8-1.2-4.9c-1.3-1.1-3.3-0.9-4.7-1.9c-1.2-0.9-1.6-2.7-3-3.5c-1.2-0.7-2.8-0.3-4.1-0.6
		c-2.4-0.6-3.9-3.4-6.4-3.6c-1.4-0.2-3,0.5-4.1-0.3c-1-0.7-1-2.2-1.2-3.4c-0.6-3.9-3.6-6.9-7.5-7.6c-1.4-0.2-3-0.2-4.2-1
		c-1.2-0.8-1.8-2.3-2.7-3.4c-1.5-1.8-4-2.4-6.3-3c-3.1-0.8-6.2-1.5-9.4-2.3c-1.7-0.4-3.8-0.6-4.7,0.8c-0.3,0.5-0.5,1.1-0.6,1.7
		c-0.7,2.2-2.8,3.7-5.2,3.7c-0.8-1.3-2-2.3-3.5-2.8c-1-0.2-1.9-0.4-2.9-0.7c-2-1-2.8-3.4-1.8-5.4c0-0.1,0.1-0.1,0.1-0.2
		c1.1-2,0.8-4.4-0.8-6c-1.6-1.4-3.9-1.8-6-1.7c-0.5-1.2,0.4-2.6,1.4-3.5c1-0.9,2.3-1.7,2.5-3c0.4-2.1-2.3-3.7-4.3-3.1
		c-2,0.6-3.3,2.5-4.2,4.4c-0.4,1.1-1,2.2-1.7,3.2c-0.7,1-2,1.5-3.2,1.3c-1.7-0.4-2.3-2.4-2.6-4.1c-0.6-2.2-0.8-4.5-0.8-6.8
		c0-2.3,1-4.5,2.7-6.2c2.8-2.5,7-2.2,10.8-1.7c-0.8-1.1-0.7-2.6,0.3-3.6c1-0.9,2.4-1.2,3.7-0.9c1.1,0.2,2.1,0.9,2.9,1.7
		c1,1.3,1.3,3,2.1,4.5c0.8,1.5,2.6,2.7,4.1,2c1.3-0.7,1.5-2.4,1.2-3.8c-0.3-1.4-1-2.8-0.8-4.2c0.3-2.7,3.1-4.3,5.7-5.4
		c2.5-1.1,5.4-2.6,5.9-5.3c0-0.5,0.1-1,0.3-1.5c0.3-0.4,0.7-0.8,1.1-1c7.4-4.7,14.9-9.5,23.4-12c0.4-0.1,0.5,0,0.9-0.1
		c0.6-0.4,0.2-1.3-0.4-1.7c-0.6-0.4-1.4-0.7-1.5-1.4c-0.1-0.5,0.2-1,0.3-1.5c0.1-1.1-0.7-2-1.8-2.1c-0.2,0-0.5,0-0.7,0.1
		c-0.7-0.9,0.7-1.9,1.8-2.2c3.3-0.8,6.6-1.3,9.9-1.5c0.4-0.1,0.8,0,1.1,0.2c0.5,0.5,0.5,1.3,0.1,1.8c-0.5,0.5-1,0.9-1.5,1.3
		c-1.1,1.1-1.6,2.6-1.1,4.1c1.7,0.9,3.6,1.8,5.6,1.6c1.9-0.3,3.7-2.4,2.8-4.2c-0.8-1.6-3.4-2-3.8-3.8c-0.5-2.1,2.5-3.9,1.8-5.9
		c-0.3-0.9-1.2-1.4-1.8-2.1c-1.6-1.6-2.1-4.1-1.1-6.2c-2.3,0.4-4.6-0.4-6.2-2c-1.5-1.5-2.6-3.9-4.7-3.8c-1.9,0-3.6,2.2-5.4,1.5
		c-0.4-0.2-0.9-0.5-1.3-0.3c-0.3,0.2-0.5,0.5-0.5,0.8c-0.5,2.2,0.3,4.7-0.9,6.5c-1.3,2-4.3,2.3-5.9,4.1c-0.9,1-1.2,2.3-2,3.4
		c-0.8,1-2.5,1.7-3.4,0.8c1-1.9,0.5-4.3-1.2-5.7c-0.9-0.6-1.8-1-2.8-1.4c-1.1-0.5-2.1-1.1-3.1-1.8c-0.5-0.3-0.9-0.7-1.1-1.2
		c-0.2-0.6-0.2-1.3,0.1-1.9c1-2.8,3.5-4.7,6.4-5.1c1.3-0.2,2.7-0.1,3.6-1c0.4-0.5,0.7-1.3,1.3-1.4c0.4-0.1,0.8,0,1.2,0.2
		c1.6,0.6,3.1,1.1,4.7,1.7c0.5,0.2,1.1,0.3,1.7,0.3c0.6-0.1,1-0.6,1-1.2c-0.1-0.8-1.3-1.2-1.2-1.9c0.1-0.3,0.2-0.5,0.4-0.7
		c3.5-3.6,8.4-5.4,13.4-5c0.6,1-0.4,2.1-1.2,2.9c-0.8,0.8-1.4,2.3-0.5,2.9c0.4,0.2,0.8,0.3,1.2,0.3c1.2,0.2,2.3,0.5,3.3,1
		c1.6,0.7,3.2,1.5,4.7,2.4c-0.2-1-0.2-2.1,0.2-3.1c0.4-1,1.4-1.6,2.5-1.3c0.9,0.4,1.4,1.6,2.4,1.7c1.3,0.2,1.9-1.8,1.3-3
		s-1.6-2.2-1.7-3.6c-0.1-0.9,0.3-2-0.4-2.5c-0.3-0.2-0.5-0.3-0.8-0.3c-5.9-1.2-11.9-2.3-17.9-3.5c-1.1-0.2-2.6-0.1-2.7,1
		c0,0.6,0.5,1.2,0.3,1.7c-0.3,0.6-1.1,0.5-1.7,0.7c-0.9,0.4-1.5,1.4-1.4,2.4c0.2,1,0.5,1.9,1.1,2.7c-1.2-0.5-2.9-0.6-4.1-1.1
		c-0.2-1.3-0.5-2.7-1-3.9c-0.1-0.8-0.8-1.3-1.6-1.2c-0.1,0-0.2,0-0.2,0.1c-1.5,0.2-3.1,0.4-4.6,0.6c-0.4,0-0.8,0.2-1.1,0.4
		c-0.6,0.6,0,1.6-0.1,2.5c-0.1,1-0.9,1.8-1.9,2c-1,0.2-2,0.2-2.9-0.1c-2.2-0.4-4.3-0.7-6.4-1.1c1.9-0.6,3.6-1.7,4.9-3.2
		c0.9-1,1.3-2.8,0.1-3.3c-0.4-0.1-0.7-0.1-1.1-0.1c-2.9,0-5.2-2.5-7.9-3.5c-0.9-0.3-1.8-0.5-2.7-0.5L2109.4,171.2z"/>
	<path class="st1" d="M2357.3,266.9c-0.7,0.9-1.8,1.4-2.9,1.3c-3-0.3-4.2-4.6-7.1-5.1c-0.3-0.1-0.5,0-0.8,0.1
		c-0.4,0.2-0.5,0.8-0.6,1.3c-0.2,2.4-0.3,5,0.6,7.2c1.4,3.3,4.9,6.1,4.1,9.6c-4.1-1.9-6.1-6.5-7-10.9c-0.9-4.4-1-9-2.7-13.1
		c-1.3,1.7-4.1,0.2-5.3-1.5c-1.1-1.7-1.8-3.6-2.9-5.3c-1.1-1.7-2.8-3.2-4.8-3.3c-2.1-0.1-4,1.3-5.6,2.6c-1.4,1-2.6,2.3-3.5,3.8
		c-1.2,2.2-0.9,4.9-1,7.4c-0.1,2.7-0.7,5.6-2.6,7.6c-1.9,2-5.3,2.6-7.4,0.8c-1-1-1.7-2.3-2-3.7c-2.2-6.5-3.9-13.1-5.3-19.8
		c-0.4,1.5-1.7,3.5-3,2.6c-0.3-0.2-0.5-0.6-0.7-0.9c-2.4-4.1-6.8-6.6-11.3-8.1c-4.5-1.5-9.2-2.2-13.6-3.9c-2.5-0.9-4.9-2.1-7.1-3.6
		c-1.2,1.7-1.3,3.8-0.4,5.7c1,1.8,3.1,2.7,5.1,2.2c1-0.3,1.8-1,2.8-1.3c1-0.3,2.3-0.1,2.7,0.8c0.4,0.9-0.2,2,0.1,2.9
		c0.4,1.4,2.6,1.6,3.4,2.9c0.4,1.1,0.1,2.3-0.7,3c-0.9,0.7-1.9,1.3-2.9,1.7c-3.2,1.7-5.5,4.7-8.3,7c-2.8,2.3-6.8,4-10.1,2.4
		c0.8-4-3.9-7-4.7-10.9c-0.3-1.3-0.1-2.7-0.5-4c-0.6-1.9-2.2-3.1-3.5-4.5c-3.3-3.5-5-8.2-4.7-12.9c0.1-1.6,0.4-3.3,0.1-4.9
		c-0.4-1.6-1.7-3.2-3.3-3.1c-3.8,0.1-8.5,0.3-10.5-2.9c-0.7-1.1-1-2.8,0.1-3.7c0.7-0.6,1.8-0.5,2.7-0.4c2.8,0.3,5.7,0.6,8.5,0.9
		c2,0.2,4.1,0.4,5.8-0.6c1.7-1,2.5-3.7,0.9-5c-1.1-0.9-3.2-0.9-3.5-2.3c-0.3-1.2,1.1-2.5,0.4-3.5c-0.5-0.7-1.6-0.5-2.3,0
		c-0.6,0.6-1.3,1.2-2,1.7c-1.4,0.7-3,0-4.4-0.5s-3.4-0.5-4.1,0.8c-0.8,1.5,0.7,3.5-0.1,5c-1.1,2-4.6,0.8-6.1,2.5
		c-1.7,1.9,1.1,4.9,0.5,7.4c-1.5,0.7-3.2,0.6-4.6-0.3c-1.3-0.9-2.1-2.5-1.9-4.1c0.1-1.1,0.8-2.3,0.4-3.4c-0.4-0.8-1.1-1.5-2-1.8
		c-2.7-1.6-5.5-3.1-8.2-4.6c-0.8,1.4,0.2,3.2,1.4,4.2c1.2,1.1,2.7,1.9,3.5,3.3c1,2,0.3,4.5-1.7,5.6c-0.2,0.2-0.5,0.2-0.8,0.1
		c-0.3-0.2-0.5-0.4-0.5-0.7c-1.4-3.7-3.6-7.4-7-9.4c-3.5-2-8.5-1.6-10.8,1.6c-0.6,0.8-0.9,1.6-1.4,2.5c-2.6,4.3-8,6.3-13.1,6.1
		c-0.5,0-1-0.1-1.4-0.3c-0.8-0.6-0.8-1.8-0.6-2.7c0.2-1.4,0.4-2.8,0.6-4.1c0-0.8,0.4-1.7,0.9-2.3c0.9-0.7,2.3-0.2,3.5-0.2
		c1.9-0.1,3.5-1.3,4-3c0.5-1.8,0-3.6-1.3-4.9c-0.5-0.5-1.3-1.2-1-1.8c0.2-0.4,0.6-0.6,1.1-0.7c2.1-0.6,4.4-0.7,6.5-1.4
		c2.1-0.7,4.2-2.2,4.7-4.3c0.2-0.7,0.2-1.5,0.8-1.8c0.3-0.1,0.6-0.2,1-0.2c2.4-0.3,4.1-2.4,4-4.7c1-0.7,2.4-0.1,3.4,0.6
		c1,0.8,1.8,1.7,3,2.1c2.2,0.6,4.4-1.3,6.7-1.3c1,0,2,0.4,2.9,0c0.9-0.3,1.5-1.2,2.2-1.9c0.7-0.7,2-1.1,2.6-0.3
		c-0.2-1.4-0.3-2.7-0.5-4.1c2.3,0.6,4.7,0.2,6.6-1.1c-2.4-0.8-4.8-1.7-7.1-2.5c-0.3-0.1-0.5-0.2-0.7-0.4c-0.5-0.6,0-1.4,0.4-2
		c1-1.5,1.2-4-0.4-4.8c-1.1-0.5-2.4,0.1-3.5,0.7c-1.8,0.9-3.5,1.9-5.3,2.8c-0.2,1,1,1.6,1.8,2.2c1.2,1.1,1.3,3,0.2,4.2
		c-0.6,0.6-1.4,1-2.2,1c0.7,0.9,0.9,2.1,0.6,3.2c-1.2,0.1-2.3,0.1-3.5,0.2c-0.4,0.1-0.8,0-1.1-0.2c-0.4-0.3-0.3-0.9-0.4-1.4
		c-0.3-1.2-1.3-2.1-2.6-2.3c-1.2-0.1-2.4-0.1-3.6,0.3c-0.5,0.2-1.1,0.2-1.6-0.1c-0.3-0.2-0.5-0.5-0.6-0.8c-0.4-1.3-0.1-2.8,0.8-3.8
		c0.9-1,1.9-1.9,3-2.7c2.5-2.1,4.3-4.9,5.3-7.9c1.9-0.8,4-1.9,5.9-2.6c1.6-0.7,3.2-1.2,4.9-1.6c1.6-0.2,3.2-0.3,4.8-0.2
		c2.2,0.1,4.4,0.1,6.6,0.2c2-0.1,3.9,0.2,5.7,0.9c1.8,0.8,3.4,2.4,3.5,4.3c0.1,0.4-0.1,0.9-0.4,1.2c-0.3,0.1-0.5,0.2-0.8,0.2
		c-1.8,0-2.6,0.5-4.4,0.5c1.1,1.2,2.4,2.5,4.1,2.8c2.9,0.4,5.1-2.6,6.5-5.2c0.1,1.4,1.3,2.5,2.7,2.4c0.7-0.1,1.4-0.4,2.1-0.8
		c5.9-3.1,12.4-4.7,19.1-4.6c-0.1-1,0.6-2,1.6-2.2c1.4-0.2,2.6,0.9,3.2,2.1c0.6,1.2,1,2.6,2.1,3.5c1,0.9,3,0.9,3.5-0.4
		c0.4-1.2-0.9-2.3-2-3.1c-1.1-0.7-2.2-2.1-1.5-3.2c5.6-1.2,11.2-2.3,17-2.5c1,0,1.9-0.1,2.9-0.5c0.9-0.4,1.5-1.3,1.4-2.3
		c-2.6,0.6-5.2-0.5-6.7-2.6c5.9-0.4,12-0.8,17.7,0.6l4.9,4.2c-1,1-2.2,1.9-1.5,2.8c0.5,0.5,1.1,0.7,1.7,0.6c1.2,0,2.4,0.1,3.6,0.1
		c24.3,23.6,39,55.2,41.4,88.9c-2-0.1-3.9,2.4-3.6,4.6c0.3,2.5,2.1,4.6,3.4,6.8c0.2,0.4,0.4,0.7,0.6,1.1L2357.3,266.9z"/>
	
		<ellipse transform="matrix(1.219336e-02 -0.9999 0.9999 1.219336e-02 1774.9705 2536.9685)" class="st5" cx="2171.5" cy="370.1" rx="23.8" ry="24"/>
	<path class="st6" d="M2159.9,382c0,0-8,17.1-10.3,17.6c-2.2,0.5,18.3,10.7,18.3,10.7s4.2-21,5.9-22.1
		C2175.5,387.2,2159.9,382,2159.9,382z"/>
	<polygon class="st6" points="2111.9,522.1 2096.9,562.4 2112.5,568.6 2139.9,516.4 	"/>
	<path class="st6" d="M2162.7,523.8c0,0,28.5,40.8,30.2,41.4c1.7,0.6,13.5-9.3,13.5-9.3s-14.1-35.1-18.5-36.8
		C2183.4,517.4,2162.7,523.8,2162.7,523.8z"/>
	<path class="st5" d="M2094.8,555.1l-23.6,59c0,0,1.6,3.3,0,3.9c-1.7,0.5-5.7,9.3-5.7,9.9c0,0.6-3.9,1.1-3.9,2.7
		c0,1.7-3.5,14.9-3.5,14.9s6,13.4,9.9,9.5c4-3.8,5.7-11.6,5.7-11.6l5.8-14.3c0,0-0.5-7.8,3.5-8.8s6.3-14.9,6.3-14.9s6.2-6,7.3-7.7
		c1.1-1.6,21-30.8,19.4-31.3C2114.2,565.9,2094.8,555.1,2094.8,555.1z"/>
	<path class="st5" d="M2189.5,564l16.9-10.9c0,0,28.4,53,28.4,54.1c0,1.1-1.2,4.4-0.1,5.5c1.1,1.1,10.4,19,16.5,20.7
		c6.1,1.7,7.2,8.4,2.1,9.4c-5,1-11.8,3.7-13.4-0.2c-1-2.3-2-4.5-3.3-6.7c0,0-5.6,1.6-6.1,0.5c-0.6-1.6-1.2-3.3-1.6-5
		c0,0-4.4-7.8-4.3-10.6s-2.7-3.4-2.7-3.4s-6-14.5-9.8-16.7c-3.9-2.3-7.1-13.4-7.1-13.4L2189.5,564z"/>
	
		<ellipse transform="matrix(1.219336e-02 -0.9999 0.9999 1.219336e-02 1766.4254 2545.7317)" class="st6" cx="2171.7" cy="378.8" rx="16.1" ry="16.2"/>
	<path class="st5" d="M2122.5,475.7c0,0-24.7,62.9-21.4,62.9s95.9,3.2,98.8-1.2c2.8-4.4-23.4-48.8-24.6-49.4
		C2174.3,487.4,2122.5,475.7,2122.5,475.7z"/>
	<path class="st6" d="M2100.1,343.6l-16.4-25.7c0,0,4.5-26.7-1.2-21.8c-5.6,4.9-7.7,25-7.7,25l19,29.5L2100.1,343.6z"/>
	<path class="st6" d="M2251.3,392l15.1-0.9c0,0,18.1-18.6,19.1-12.5c1,6.1-14.7,19.2-14.7,19.2l-20.7,2L2251.3,392z"/>
	<path class="st1" d="M2141.3,396.2l0.1-5.5c0,0-14.4-9.6-13.8-11.2c0.6-1.7-1.1-2.8-1.1-2.8s-1.6-2.2-1.6-2.8
		c0-0.6-2.2-1.1-2.2-1.1l-13.8-16.2c0,0-7.6-15.6-9.3-15.1s-10.6,3.7-9.6,6c1.1,2.2,31.8,50.2,31.8,50.2s1.5,10.5,4.3,10.6
		S2141.3,396.2,2141.3,396.2z"/>
	<path class="st1" d="M2178.7,403.3c0,0,12.3-0.4,12.8,0.2s8.4,0.1,8.4,0.1s21.3-4.7,23-6.4c1.7-1.6,29.7-8.5,30.8-5.2
		c1.1,3.3,3.8,10,1,11.1c-2.8,1.1-78.4,19-78.4,19L2178.7,403.3z"/>
	
		<ellipse transform="matrix(1.219336e-02 -0.9999 0.9999 1.219336e-02 1792.139 2504.0349)" class="st5" cx="2163.4" cy="345" rx="9.9" ry="9.9"/>
	<path class="st5" d="M2150.3,339.5c0.1-5,4-9.2,9-9.7c-0.3,0-0.7-0.1-1-0.1c-5.5-0.1-10,4.3-10.1,9.7c-0.1,5.4,4.3,9.9,9.8,10
		c0,0,0,0,0,0c0.3,0,0.7,0,1,0C2154,348.8,2150.2,344.5,2150.3,339.5z"/>
	
		<ellipse transform="matrix(1.219336e-02 -0.9999 0.9999 1.219336e-02 1782.8 2534.8677)" class="st5" cx="2174.4" cy="365.1" rx="9.9" ry="16.5"/>
	<path class="st1" d="M2155.1,390.5c0,0-5.1,3.8-6.2,4.4c-1.1,0.5-7.8-5.1-8.9-5.1c-1.1,0-15.8,16.4-15.8,16.4s2.7,3.1-0.2,18.8
		c-1.1,5.9-3.4,31.1-3.4,34.4c0,3.3-11.1,11.4-1.1,18.7c10,7.3,57.8,15.7,58.5,11.2c0.6-4.4-5.4-16.1-2.5-21.6
		c2.9-5.5,3.1-26,3.1-26l3.6-21.6l3-17.1c0,0-13.1-3.8-14.2-3.8S2164.7,407,2155.1,390.5z"/>
</g>
<g class="st0">
	
		<rect x="622.5" y="315.3" transform="matrix(0.1744 -0.9847 0.9847 0.1744 -62.8001 1097.9767)" class="st1" width="1.6" height="542.2"/>
	<path class="st1" d="M755.6,520.9c61.1,81.1-168.4,141.6-339.9,111.2S139.1,504.8,134.7,411C124,183.6,618.9,127.9,474.6,299.8
		C264.2,550.3,707.4,457.1,755.6,520.9z"/>
	
		<ellipse transform="matrix(0.1744 -0.9847 0.9847 0.1744 97.6438 583.2805)" class="st7" cx="396.6" cy="233.4" rx="5.3" ry="6.3"/>
	
		<ellipse transform="matrix(0.1744 -0.9847 0.9847 0.1744 -312.6432 692.2576)" class="st7" cx="256.5" cy="532.6" rx="5.3" ry="6.3"/>
	
		<ellipse transform="matrix(0.1744 -0.9847 0.9847 0.1744 17.8661 645.9161)" class="st7" cx="394.1" cy="312.3" rx="2.4" ry="2.8"/>
	
		<ellipse transform="matrix(0.1744 -0.9847 0.9847 0.1744 -213.9763 560.3144)" class="st7" cx="227.1" cy="407.8" rx="2.4" ry="2.8"/>
	
		<ellipse transform="matrix(0.1744 -0.9847 0.9847 0.1744 -75.4952 1029.3912)" class="st7" cx="576.1" cy="559.7" rx="2.4" ry="2.8"/>
	
		<ellipse transform="matrix(0.1744 -0.9847 0.9847 0.1744 -85.3921 472.7029)" class="st7" cx="239.2" cy="287.3" rx="2.4" ry="2.8"/>
	<polygon class="st7" points="418.5,255.3 417.1,255.1 417.3,253.9 416.6,253.8 416.4,254.9 415,254.7 414.9,255.3 416.3,255.5 
		416.1,256.7 416.8,256.8 417,255.7 418.4,255.9 	"/>
	<polygon class="st7" points="309.1,255.8 307.7,255.5 307.9,254.4 307.2,254.2 307,255.4 305.6,255.2 305.5,255.7 306.9,256 
		306.7,257.2 307.4,257.3 307.6,256.1 309,256.4 	"/>
	<polygon class="st7" points="220.4,353.1 219,352.8 219.2,351.7 218.5,351.5 218.3,352.7 216.9,352.5 216.8,353 218.2,353.3 
		218,354.4 218.7,354.6 218.9,353.4 220.3,353.6 	"/>
	<ellipse transform="matrix(0.1744 -0.9847 0.9847 0.1744 -253.102 852.0404)" class="st7" cx="381.5" cy="577" rx="2.4" ry="2.8"/>
	
		<ellipse transform="matrix(0.1744 -0.9847 0.9847 0.1744 -124.5178 764.4289)" class="st7" cx="393.6" cy="456.5" rx="2.4" ry="2.8"/>
	
		<ellipse transform="matrix(0.1744 -0.9847 0.9847 0.1744 40.1379 1163.1329)" class="st7" cx="713.7" cy="557.6" rx="2.4" ry="2.8"/>
	<polygon class="st7" points="374.8,522.3 373.4,522 373.6,520.9 372.9,520.7 372.7,521.9 371.3,521.6 371.2,522.2 372.6,522.5 
		372.4,523.6 373.1,523.8 373.3,522.6 374.7,522.8 	"/>
	<polygon class="st7" points="501.9,587.4 500.5,587.2 500.7,586 500,585.9 499.8,587.1 498.4,586.8 498.3,587.4 499.7,587.7 
		499.5,588.8 500.2,588.9 500.4,587.8 501.8,588 	"/>
	<polygon class="st7" points="180.7,423.6 179.4,423.3 179.6,422.2 178.9,422 178.7,423.2 177.3,423 177.2,423.6 178.6,423.8 
		178.4,425 179.1,425.1 179.3,423.9 180.6,424.2 	"/>
	<polygon class="st7" points="388.2,373.8 386.8,373.5 387,372.4 386.4,372.2 386.1,373.4 384.8,373.2 384.7,373.7 386,374 
		385.8,375.2 386.5,375.3 386.7,374.1 388.1,374.4 	"/>
	<polygon class="st7" points="315.2,289.9 313.8,289.7 314,288.5 313.3,288.4 313.1,289.5 311.7,289.3 311.6,289.9 313,290.1 
		312.8,291.3 313.5,291.4 313.7,290.2 315.1,290.5 	"/>
	<polygon class="st7" points="351.7,414.8 350.3,414.5 350.5,413.4 349.8,413.2 349.6,414.4 348.2,414.2 348.1,414.8 349.5,415 
		349.3,416.2 350,416.3 350.2,415.1 351.6,415.4 	"/>
	<polygon class="st7" points="255.7,472.3 254.3,472.1 254.5,470.9 253.9,470.8 253.6,472 252.3,471.7 252.2,472.3 253.5,472.5 
		253.3,473.7 254,473.8 254.2,472.7 255.6,472.9 	"/>
	
		<ellipse transform="matrix(0.1744 -0.9847 0.9847 0.1744 -118.1416 606.3353)" class="st2" cx="302.5" cy="373.6" rx="5.3" ry="41.5"/>
	<path class="st7" d="M306.4,376.1c-16.7-3-41.3-8.9-40.5-13.2c0.8-4.3,25.9-1.4,42.6,1.5c16.7,3,41.3,8.9,40.5,13.2
		C348.2,381.9,323.1,379.1,306.4,376.1z M308.2,365.6c-10.9-1.9-21.2-3.2-29.1-3.6c-9.2-0.4-11.8,0.5-11.9,1.1
		c-0.1,0.6,2,2.4,10.8,5.1c7.5,2.3,17.6,4.7,28.5,6.6c10.9,1.9,21.2,3.2,29.1,3.6c9.2,0.4,11.8-0.5,11.9-1.1c0.1-0.6-2-2.4-10.8-5.1
		C329.2,369.9,319.1,367.5,308.2,365.6z"/>
	<path class="st2" d="M322.5,285.2c-14.5-2.6-26.8-1.7-29,10.5s1,63.3,15.5,65.9c14.5,2.6,35-44.3,37.2-56.5
		C348.3,292.8,337,287.8,322.5,285.2z M316.9,316.7c-6.1-1.1-10.3-6.1-9.4-11.3c0.9-5.1,6.6-8.4,12.7-7.4c6.1,1.1,10.3,6.1,9.4,11.3
		C328.7,314.4,323,317.7,316.9,316.7L316.9,316.7L316.9,316.7z"/>
	<path class="st7" d="M790.9,505.7c-48.1-63.8-491.3,29.3-281-221.2c93.8-111.7-82.3-127.3-214.2-62.1
		c124.6-45.3,261.3-23,176.3,78.3C261.7,551.2,704.9,458,753.1,521.8c22.4,29.7,5.8,56.6-32.7,77.4
		C784,577.5,819.7,543.9,790.9,505.7z"/>
	<path class="st7" d="M418.7,631.6l-0.8-0.4c-0.2-0.1-18.6-9.8-25.2-25.7c-6.6-15.9,0.9-32.2,1-32.4l0.3-0.7l0.8,0.4
		c0.2,0.1,18.6,9.8,25.2,25.7c6.6,15.9-0.9,32.2-1,32.4L418.7,631.6z M394.3,605.1c5.6,13.4,19.9,22.3,23.6,24.4
		c1.4-3.4,6.2-17.2,0.6-30.6c-5.6-13.4-19.9-22.3-23.6-24.4C393.6,577.9,388.7,591.7,394.3,605.1L394.3,605.1z"/>
	<path class="st6" d="M684.2,341.6c0,0-43.1,24.3-28,30.9c15.1,6.6,38.9-22.5,38.9-22.5L684.2,341.6z"/>
	<polygon class="st6" points="703.3,452.7 695.6,469.6 729.2,476.8 727.3,456.9 	"/>
	<polygon class="st6" points="790.7,581 783,597.9 816.7,605.2 814.8,585.3 	"/>
	<path class="st5" d="M771.6,342.8l1.2,10.7c0,0-81-28.7-82.8,7.5s11.7,73.9,11.7,73.9s-3.5,11.1-0.8,13.6c2.7,2.4-1.5,8.2-1.5,8.2
		s27.3,8.1,29,2.5c1.1-3.7,1.5-7.6,1.3-11.5c0,0,1.5,0.3,1.1-6.3c-0.4-6.6,2.6-58.7-0.7-66.4c0,0,35.4,32.8,57,33.4
		c0,0-7.5,24.8-1.4,60.4s5.4,39.5,5.4,39.5s3,66.4-2.1,73.4l-1.3,3l27.8,4.9c0,0,3.7-33.9,6.7-38c3-4,9.8-42,0.3-63.2
		c-6.7-15,1.9-53.7,9.6-68.2c6.4-12.2,9.3-22,9.2-35.6c-0.1-14.6-6.6-23.4-14.9-31.8L771.6,342.8z"/>
	
		<ellipse transform="matrix(0.1744 -0.9847 0.9847 0.1744 447.435 991.0264)" class="st6" cx="814.7" cy="228.7" rx="23.1" ry="27.5"/>
	<path class="st6" d="M804.7,243.6c0,0,4.7,21.7,3.3,25.4c-1.4,3.7,25.4-3.3,25.4-3.3s-6.2-22-2.2-27.1L804.7,243.6z"/>
	<path class="st7" d="M833.1,258.4l-27.9,4.2l0.2,7.9c0,0-2.7,2.1-2.2,3.5c0.5,1.4-10.9,4.6-9.7,6.8c1.2,2.2-10.7,7.9-10.3,9.9
		c0.4,2-26.4,9-16.8,33.6c0,0,5.7,8.9,3.2,17.8c-0.1,0.3-0.2,0.6-0.3,0.9c-3.2,9.2,57.4,8.9,57.4,8.9l1.9-10.8c0,0,5.6-1,6.3-9.3
		c0.7-8.4-4.5-5.4,1.6-8.9s5.9-2.9,5.9-6.8c0-1.6,0.9-7,2-13c2.3-12.7-0.4-25.9-7.7-37.6l0,0L833.1,258.4z"/>
	<path class="st7" d="M815.9,272.3l-56.5,34.4l-79.9,34.8l13.9,13.6l144.7-50.7C838.2,304.3,856.6,265.8,815.9,272.3z"/>
	<path class="st5" d="M703.9,462.6c0,0-3.9-8.5-8.1-6.7l-29.5,13.1c0,0-48.6,3.1-5.1,20c0,0,24.3,7.6,30.1,5.3s14-0.1,16,1.5
		s30.9,4.8,31.8-0.2c0.9-5.1-10.9-30-10.9-30S717.6,472.8,703.9,462.6z"/>
	<path class="st5" d="M791.3,590.9c0,0-3.9-8.5-8.1-6.7l-29.5,13.1c0,0-48.6,3.1-5.1,20c0,0,24.3,7.6,30.1,5.3s14-0.1,16,1.5
		c2,1.7,30.9,4.8,31.8-0.2c0.9-5.1-10.9-30-10.9-30S805,601.2,791.3,590.9z"/>
	<path class="st5" d="M783.8,213.9c0,0,10.6-33,48-16.5c0,0,28.5,0.2,33.2,31l4.5,32.3l-4.2-2.8l-2.7,3.5l-7.6,0.4l-2.3-5.7
		l-2.5,6.1l-51.6-0.4c0,0,19.8-13.3,23.9-37.2l-5.8,3.7L783.8,213.9z"/>
	
		<ellipse transform="matrix(0.1744 -0.9847 0.9847 0.1744 -11.1301 933.8956)" class="st5" cx="551.3" cy="473.6" rx="8.3" ry="74.6"/>
	<path class="st1" d="M608.7,382l-0.9-0.2l3.5-20c1.1-6.4-4.1-12.7-11.7-14c0,0,0,0,0,0l-50.5-8.9c-7.6-1.3-14.7,2.8-15.8,9.2
		c0,0,0,0,0,0l-19.5,109.9c-1.1,6.4,4.1,12.7,11.7,14c0,0,0,0,0,0l50.5,8.9c7.6,1.3,14.7-2.8,15.8-9.2c0,0,0,0,0,0l13.4-75.6
		l0.9,0.2L608.7,382z"/>
	<path class="st2" d="M599.3,351.1l-6.6-1.2c0.6,2.3-1,4.5-3.6,4.9c-0.6,0.1-1.3,0.1-1.9,0l-28.9-5.1c-2.7-0.5-4.6-2.7-4.2-5
		c0.1-0.5,0.3-1,0.6-1.5l-6.2-1.1c-5.7-1-11,2.1-11.8,6.8l-19.4,109.7c-0.8,4.8,3.1,9.5,8.8,10.5l50.7,9c5.7,1,11-2.1,11.8-6.8
		l19.4-109.7C608.9,356.8,605,352.1,599.3,351.1z"/>
	
		<ellipse transform="matrix(0.1744 -0.9847 0.9847 0.1744 81.1698 864.049)" class="st7" cx="555.8" cy="383.6" rx="12.4" ry="14.8"/>
	<path class="st1" d="M590.5,408.1l-15-17.9c5.9-5.3,5.3-14-1.3-19.4c-6.6-5.4-16.8-5.4-22.7-0.1s-5.3,14,1.3,19.4
		c4.8,3.9,11.6,5.1,17.5,3.1l15,17.9L590.5,408.1z M554.3,385.8c-3.8-4.5-2.7-10.5,2.4-13.5c5.1-2.9,12.3-1.7,16,2.8
		c3.8,4.5,2.7,10.5-2.4,13.5l0,0C565.3,391.6,558.1,390.3,554.3,385.8z"/>
	
		<rect x="557.8" y="391.7" transform="matrix(0.1744 -0.9847 0.9847 0.1744 48.8451 899.3578)" class="st1" width="5.9" height="57.7"/>
</g>
</svg>
